<svg width="65" height="65" viewBox="0 0 65 65" fill="none" xmlns="http://www.w3.org/2000/svg">
    <path d="M64.805 45.1433C62.5374 50.3433 58.891 54.8745 54.233 58.2805C49.575 61.6865 44.07 63.8471 38.2722 64.5446C32.4745 65.2421 26.5888 64.452 21.2079 62.2537C15.827 60.0555 11.1409 56.5268 7.62145 52.023C4.10205 47.5192 1.87364 42.1994 1.16064 36.5992C0.44764 30.9991 1.27523 25.3163 3.56006 20.1233C5.8449 14.9303 9.5063 10.4105 14.1755 7.01886C18.8448 3.62727 24.3569 1.48374 30.157 0.804129C30.5593 0.757721 30.9667 0.834036 31.3219 1.02238C31.6772 1.21073 31.9625 1.50168 32.138 1.85446C32.3215 2.20074 32.3865 2.5943 32.3236 2.97853C32.2608 3.36275 32.0734 3.71782 31.7884 3.99265C29.4074 6.27376 27.5242 8.99266 26.2499 11.9887C24.9756 14.9847 24.3361 18.197 24.3693 21.4357C24.4035 25.6928 25.579 29.8687 27.7812 33.5566C29.9834 37.2445 33.1373 40.3186 36.9355 42.4794C40.7337 44.6401 45.0468 45.8139 49.4544 45.8863C53.862 45.9588 58.2139 44.9273 62.086 42.8926C62.4455 42.7134 62.8525 42.6426 63.2542 42.6895C63.6559 42.7363 64.0338 42.8985 64.3389 43.1552C64.5989 43.4128 64.78 43.7349 64.8623 44.0858C64.9445 44.4366 64.9247 44.8026 64.805 45.1433V45.1433Z" fill="#000"/>
</svg>
