<svg width="65" height="65" viewBox="0 0 65 65" fill="none" xmlns="http://www.w3.org/2000/svg">
    <path d="M32.3505 48.2097C41.187 48.2097 48.3505 41.0463 48.3505 32.2097C48.3505 23.3732 41.187 16.2097 32.3505 16.2097C23.5139 16.2097 16.3505 23.3732 16.3505 32.2097C16.3505 41.0463 23.5139 48.2097 32.3505 48.2097Z" fill="#FFF"/>
    <path d="M61.1505 35.4098H57.9505C57.1018 35.4098 56.2879 35.0726 55.6877 34.4725C55.0876 33.8724 54.7505 33.0585 54.7505 32.2098C54.7505 31.3611 55.0876 30.5471 55.6877 29.947C56.2879 29.3469 57.1018 29.0098 57.9505 29.0098H61.1505C61.9992 29.0098 62.8131 29.3469 63.4132 29.947C64.0134 30.5471 64.3505 31.3611 64.3505 32.2098C64.3505 33.0585 64.0134 33.8724 63.4132 34.4725C62.8131 35.0726 61.9992 35.4098 61.1505 35.4098Z" fill="#FFF"/>
    <path d="M6.75047 35.4098H3.55046C2.70177 35.4098 1.88784 35.0726 1.28772 34.4725C0.687606 33.8724 0.350464 33.0585 0.350464 32.2098C0.350464 31.3611 0.687606 30.5471 1.28772 29.947C1.88784 29.3469 2.70177 29.0098 3.55046 29.0098H6.75047C7.59916 29.0098 8.41309 29.3469 9.01321 29.947C9.61332 30.5471 9.95047 31.3611 9.95047 32.2098C9.95047 33.0585 9.61332 33.8724 9.01321 34.4725C8.41309 35.0726 7.59916 35.4098 6.75047 35.4098Z" fill="#FFF"/>
    <path d="M50.4625 17.2977C49.6676 17.2617 48.9146 16.9309 48.3505 16.3697C47.7545 15.7701 47.4199 14.9591 47.4199 14.1137C47.4199 13.2683 47.7545 12.4573 48.3505 11.8577L50.6225 9.5857C50.9093 9.25072 51.2623 8.97866 51.6594 8.78658C52.0564 8.59451 52.4888 8.48657 52.9295 8.46955C53.3702 8.45253 53.8097 8.52678 54.2203 8.68766C54.6309 8.84854 55.0039 9.09257 55.3157 9.40442C55.6276 9.71628 55.8716 10.0892 56.0325 10.4999C56.1934 10.9105 56.2676 11.35 56.2506 11.7907C56.2336 12.2314 56.1257 12.6638 55.9336 13.0608C55.7415 13.4578 55.4694 13.8108 55.1345 14.0977L52.8625 16.3697C52.5484 16.6821 52.173 16.9258 51.7598 17.0856C51.3467 17.2453 50.9049 17.3175 50.4625 17.2977V17.2977Z" fill="#FFF"/>
    <path d="M11.9984 55.7618C11.5773 55.7642 11.1598 55.6835 10.7699 55.5242C10.3801 55.365 10.0254 55.1304 9.72643 54.8338C9.13043 54.2342 8.7959 53.4232 8.7959 52.5778C8.7959 51.7324 9.13043 50.9213 9.72643 50.3218L11.9984 48.2098C12.6106 47.6855 13.398 47.4116 14.2034 47.4427C15.0088 47.4738 15.7727 47.8077 16.3426 48.3776C16.9125 48.9475 17.2464 49.7114 17.2775 50.5168C17.3086 51.3222 17.0347 52.1096 16.5104 52.7218L14.2384 54.9938C13.6174 55.5268 12.8158 55.8016 11.9984 55.7618V55.7618Z" fill="#FFF"/>
    <path d="M32.3504 9.80972C31.5017 9.80972 30.6878 9.47258 30.0876 8.87246C29.4875 8.27234 29.1504 7.45841 29.1504 6.60972V3.40972C29.1504 2.56102 29.4875 1.74709 30.0876 1.14698C30.6878 0.546859 31.5017 0.209717 32.3504 0.209717C33.1991 0.209717 34.013 0.546859 34.6131 1.14698C35.2132 1.74709 35.5504 2.56102 35.5504 3.40972V6.60972C35.5504 7.45841 35.2132 8.27234 34.6131 8.87246C34.013 9.47258 33.1991 9.80972 32.3504 9.80972Z" fill="#FFF"/>
    <path d="M32.3504 64.2097C31.5017 64.2097 30.6878 63.8726 30.0876 63.2725C29.4875 62.6724 29.1504 61.8584 29.1504 61.0097V57.8097C29.1504 56.961 29.4875 56.1471 30.0876 55.547C30.6878 54.9469 31.5017 54.6097 32.3504 54.6097C33.1991 54.6097 34.013 54.9469 34.6131 55.547C35.2132 56.1471 35.5504 56.961 35.5504 57.8097V61.0097C35.5504 61.8584 35.2132 62.6724 34.6131 63.2725C34.013 63.8726 33.1991 64.2097 32.3504 64.2097Z" fill="#FFF"/>
    <path d="M14.2385 17.2977C13.399 17.2942 12.5945 16.9609 11.9985 16.3697L9.72649 14.0977C9.20225 13.4856 8.92831 12.6981 8.95942 11.8928C8.99053 11.0874 9.32439 10.3234 9.89429 9.75354C10.4642 9.18364 11.2282 8.84978 12.0335 8.81867C12.8389 8.78756 13.6263 9.0615 14.2385 9.58575L16.5105 11.8577C17.1065 12.4573 17.441 13.2684 17.441 14.1137C17.441 14.9591 17.1065 15.7702 16.5105 16.3697C16.2115 16.6663 15.8569 16.901 15.467 17.0602C15.0771 17.2195 14.6596 17.3002 14.2385 17.2977Z" fill="#FFF"/>
    <path d="M52.7024 55.7618C51.8629 55.7582 51.0584 55.425 50.4624 54.8338L48.3504 52.5618C48.0122 51.9538 47.8814 51.2522 47.9777 50.5632C48.074 49.8743 48.3922 49.2355 48.8842 48.7435C49.3761 48.2516 50.0149 47.9334 50.7039 47.8371C51.3928 47.7408 52.0944 47.8716 52.7024 48.2098L54.9744 50.4818C55.5704 51.0813 55.9049 51.8924 55.9049 52.7378C55.9049 53.5832 55.5704 54.3942 54.9744 54.9938C54.3453 55.5346 53.5307 55.81 52.7024 55.7618Z" fill="#FFF"/>
</svg>
