<svg width="64" height="75" viewBox="0 0 64 75" fill="none" xmlns="http://www.w3.org/2000/svg">
<path d="M62.143 37.5352C51.8132 37.738 53.9648 44.2773 46.6847 45.931C39.2893 47.6111 38.1218 27.869 30.7282 27.869C23.3336 27.869 21.6955 47.0463 12.4366 60.2117L12.1725 60.5844L32.0235 72.0434L62.143 54.6556V37.5352Z" fill="#36A2EB"/>
<path d="M62.143 36.94C58.685 32.502 56.3394 27.3999 51.2932 27.3999C42.3631 27.3999 44.7128 41.9678 34.8434 41.9678C24.973 41.9678 23.9354 26.298 12.7539 41.028C9.19103 45.7214 6.32316 50.9547 4.07043 55.9067L32.0236 72.0439L62.143 54.6561V36.94Z" fill="#FFCE56"/>
<path opacity="0.8" d="M1.90314 42.9744C5.29193 33.5899 6.7545 25.9894 13.224 25.9894C23.0935 25.9894 25.4427 53.7162 33.9036 50.8955C42.3631 48.0761 41.4229 33.0376 54.5832 33.0376C57.088 33.0376 59.6456 34.5722 62.1435 37.0544V54.6555L32.024 72.0433L1.90361 54.6555V42.9744H1.90314Z" fill="#FE6184"/>
<path d="M32 74.2236L0 55.7515V18.8059L32 0.333374L64 18.8059V55.751L32 74.2236ZM3.75962 53.581L32 69.8835L60.2404 53.581V20.9764L32 4.67396L3.75962 20.9764V53.581Z" fill="#E7E9ED"/>
</svg>
