<svg width="65" height="65" viewBox="0 0 65 65" fill="none" xmlns="http://www.w3.org/2000/svg">
<path d="M32.1824 0.167053C23.6955 0.167053 15.5561 3.53847 9.55499 9.53964C3.55384 15.5408 0.182427 23.6801 0.182427 32.1671C0.169137 39.5353 2.63033 46.6945 7.17141 52.497C11.7125 58.2995 18.0704 62.4092 25.2259 64.1671V55.8192H22.4433C15.1528 55.8192 12.5928 44.6888 8.53024 44.6888C16.2937 44.6888 17.7963 50.254 22.4433 50.254C22.8206 50.3044 23.2044 50.2672 23.565 50.1451C23.9256 50.0231 24.2531 49.8196 24.5223 49.5505C24.7915 49.2813 24.995 48.9537 25.117 48.5931C25.239 48.2326 25.2763 47.8487 25.2259 47.4714V46.4975C17.1285 44.2157 11.3128 38.1497 11.3128 30.7757C11.378 26.9396 12.9468 23.2824 15.6815 20.5914C14.9845 19.087 14.7269 17.4162 14.9386 15.7718C15.1503 14.1273 15.8227 12.5762 16.878 11.2975C19.4236 12.0617 21.713 13.5046 23.5006 15.4714C29.1093 13.4345 35.2555 13.4345 40.8641 15.4714C42.6517 13.5046 44.9411 12.0617 47.4867 11.2975C48.5421 12.5762 49.2144 14.1273 49.4261 15.7718C49.6378 17.4162 49.3803 19.087 48.6832 20.5914C51.418 23.2824 52.9868 26.9396 53.0519 30.7757C53.0519 38.4001 46.6797 44.6888 37.9702 46.8036C38.8674 48.7532 39.2689 50.8944 39.1389 53.0366V64.1671C46.2943 62.4092 52.6522 58.2995 57.1933 52.497C61.7344 46.6945 64.1956 39.5353 64.1823 32.1671C64.1823 23.6801 60.8109 15.5408 54.8097 9.53964C48.8086 3.53847 40.6693 0.167053 32.1824 0.167053V0.167053Z" fill="#FFF" />
</svg>
