<svg width="65" height="62" viewBox="0 0 65 62" fill="none" xmlns="http://www.w3.org/2000/svg">
<path d="M0.896179 0H64.8962V61.0235H0.896179V0Z" fill="#F0DB4F"/>
<path d="M35.7249 47.593C35.7249 53.5318 32.0677 56.2425 26.7389 56.2425C21.9248 56.2425 19.1391 53.8725 17.7104 50.9986L22.6103 48.1789C23.5532 49.7725 24.4104 51.1209 26.4818 51.1209C28.4532 51.1209 29.7106 50.3854 29.7106 47.5115V28.0191H35.7249V47.593ZM49.9535 56.2425C44.3677 56.2425 40.7535 53.7088 38.9963 50.3854L43.8964 47.6882C45.1821 49.6907 46.8677 51.1753 49.8249 51.1753C52.3106 51.1753 53.9104 49.9903 53.9104 48.3423C53.9104 46.3807 52.282 45.6863 49.5249 44.5283L48.0249 43.9154C43.6821 42.1582 40.8106 39.9379 40.8106 35.266C40.8106 30.9615 44.2534 27.6924 49.6104 27.6924C53.439 27.6924 56.1818 28.9592 58.1533 32.2828L53.4675 35.1433C52.439 33.386 51.3247 32.6916 49.5962 32.6916C47.8389 32.6916 46.7246 33.7542 46.7246 35.1433C46.7246 36.8596 47.8389 37.5545 50.4247 38.6302L51.9245 39.2433C57.0389 41.3274 59.9103 43.4661 59.9103 48.2607C59.9105 53.4093 55.6533 56.2425 49.9535 56.2425V56.2425Z" fill="#323330"/>
</svg>
