<svg width="65" height="65" viewBox="0 0 65 65" fill="none" xmlns="http://www.w3.org/2000/svg">
<path d="M33.3299 0.903564L64.1649 13.2552V55.0379L33.3299 64.9036L0.165039 55.0379L0.164917 13.2552L33.3299 0.903564Z" fill="#009900"/>
<path d="M25.8485 18.0005L41.4618 41.6255V17.7817C41.4618 16.2323 41.7899 15.0747 42.4462 14.3091C43.1206 13.5252 44.023 13.1333 45.1532 13.1333C46.3199 13.1333 47.2404 13.5252 47.9149 14.3091C48.5894 15.0747 48.9266 16.2323 48.9266 17.7817V49.3091C48.9266 52.8273 47.4683 54.5864 44.5516 54.5864C43.8225 54.5864 43.1662 54.4771 42.5829 54.2583C41.9996 54.0578 41.4527 53.7297 40.9423 53.2739C40.4318 52.8182 39.9579 52.2896 39.5204 51.688C39.0829 51.0682 38.6454 50.4393 38.2079 49.8013L22.9774 26.4497V49.938C22.9774 51.4692 22.6219 52.6268 21.911 53.4106C21.2001 54.1945 20.2886 54.5864 19.1766 54.5864C18.0282 54.5864 17.1076 54.1945 16.4149 53.4106C15.7222 52.6086 15.3759 51.451 15.3759 49.938V19.0122C15.3759 17.6997 15.5217 16.6698 15.8134 15.9224C16.1597 15.1021 16.7339 14.4367 17.536 13.9263C18.3381 13.3976 19.204 13.1333 20.1337 13.1333C20.8628 13.1333 21.4826 13.2518 21.993 13.4888C22.5217 13.7257 22.9774 14.0448 23.3602 14.4458C23.7613 14.8468 24.1623 15.3664 24.5634 16.0044C24.9826 16.6424 25.411 17.3078 25.8485 18.0005Z" fill="white"/>
</svg>
