<svg width="65" height="65" viewBox="0 0 65 65" fill="none" xmlns="http://www.w3.org/2000/svg">
<path d="M32.5199 64.6857C31.5603 64.6857 30.5862 64.4572 29.741 64.0254L20.903 59.3901C19.5853 58.7296 20.2298 58.5012 20.6596 58.374C22.4215 57.8279 22.7796 57.7138 24.6559 56.7612C24.8565 56.6598 25.1145 56.6976 25.3149 56.8121L32.1045 60.3805C32.3482 60.5074 32.6916 60.5074 32.9209 60.3805L59.3776 46.8425C59.6213 46.7155 59.7786 46.4616 59.7786 46.2077V19.1319C59.7786 18.8652 59.6213 18.624 59.3635 18.4844L32.9209 4.95908C32.6775 4.83205 32.3482 4.83205 32.1045 4.95908L5.67663 18.4969C5.41849 18.624 5.26124 18.8779 5.26124 19.1446V46.2077C5.26124 46.4616 5.41864 46.7155 5.67663 46.83L12.9248 50.5383C16.864 52.278 19.2703 50.2334 19.2703 48.1636V21.4432C19.2703 21.0622 19.614 20.7702 20.044 20.7702H23.3958C23.811 20.7702 24.1692 21.0622 24.1692 21.4432V48.1762C24.1692 52.8242 21.3043 55.4912 16.3341 55.4912C14.8012 55.4912 13.5979 55.4912 10.2462 54.0181L3.31314 50.4748C1.59431 49.5984 0.534424 47.9602 0.534424 46.1952V19.1319C0.534424 17.3794 1.59431 15.7285 3.31314 14.8523L29.741 1.31426C31.4169 0.476138 33.6371 0.476138 35.2986 1.31426L61.7557 14.8648C63.4745 15.741 64.5344 17.3793 64.5344 19.1446V46.2077C64.5344 47.9602 63.4745 49.5984 61.7557 50.4875L35.2986 64.0254C34.4536 64.4574 33.4954 64.6851 32.5199 64.6857V64.6857ZM53.8775 38.0038C53.8775 32.9365 50.0098 31.5904 41.8882 30.6381C33.6658 29.6728 32.8352 29.1775 32.8352 27.4758C32.8352 26.0662 33.5371 24.1866 39.6248 24.1866C45.0539 24.1866 47.0593 25.228 47.8899 28.4792C47.9616 28.7839 48.277 29.0125 48.6347 29.0125H52.0729C52.2875 29.0125 52.488 28.9364 52.6315 28.7965C52.7749 28.657 52.8463 28.4664 52.8315 28.2758C52.3019 22.6755 48.1047 20.0719 39.6248 20.0719C32.0761 20.0719 27.5784 22.8913 27.5784 27.6283C27.5784 32.7589 32.0617 34.1815 39.2953 34.816C47.9616 35.5655 48.6347 36.6958 48.6347 38.2071C48.6347 40.8234 46.2572 41.9407 40.685 41.9407C33.6805 41.9407 32.1478 40.3786 31.6322 37.2929C31.5749 36.9627 31.2596 36.7214 30.8731 36.7214H27.4494C27.3496 36.721 27.2507 36.738 27.1584 36.7717C27.066 36.8053 26.9822 36.8549 26.9116 36.9174C26.841 36.98 26.7851 37.0544 26.7472 37.1362C26.7092 37.2181 26.69 37.3058 26.6905 37.3943C26.6905 41.3442 29.1113 46.0557 40.6996 46.0557C49.0645 46.0429 53.8775 43.1088 53.8775 38.0038Z" fill="#19FF05"/>
</svg>
