<svg width="65" height="72" viewBox="0 0 65 72" fill="none" xmlns="http://www.w3.org/2000/svg">
<path d="M46.4788 0.500427C43.9156 0.520855 41.3674 0.92024 38.9061 1.68728L38.733 1.74618C37.1805 1.45223 35.6089 1.28975 34.0327 1.26025C30.7947 1.20135 28.013 2.04363 25.7701 3.44546C23.5601 2.6238 18.9753 1.20724 14.1431 1.48996C10.7787 1.68728 7.10642 2.78283 4.38521 5.86039C1.67224 8.93795 0.23742 13.7001 0.539777 20.1792C0.622238 21.9668 1.09776 24.8824 1.88664 28.6579C2.67552 32.4334 3.78324 36.8539 5.16584 40.8857C6.54844 44.9204 8.06297 48.5428 10.4296 51.0048C11.6115 52.2388 13.2388 53.2755 15.1574 53.1901C16.5042 53.1312 17.7219 52.498 18.7719 51.5644C19.2832 52.2859 19.8302 52.6011 20.3277 52.8926C20.9544 53.2607 21.5646 53.5111 22.1968 53.676C23.332 53.9793 25.2753 54.3857 27.5512 53.9705C28.3264 53.8321 29.1427 53.5611 29.9564 53.1753C29.9866 54.1472 30.0223 55.0984 30.0581 56.0615C30.1708 59.1125 30.2422 61.9309 31.0971 64.4018C31.2345 64.8053 31.6111 66.8845 33.0954 68.7192C34.5797 70.5569 37.4878 71.7026 40.8 70.9427C43.1364 70.4067 46.1077 69.4408 48.0813 66.4309C50.0329 63.4565 50.9125 59.1891 51.0856 52.2683C51.1249 51.9366 51.1753 51.6065 51.2368 51.2787L51.7013 51.3229H51.7563C54.2494 51.4437 56.9541 51.0637 59.2135 49.9387C61.2146 48.9463 62.7291 47.942 63.8313 46.1603C64.1062 45.7185 64.4086 45.1855 64.491 44.2666C64.5735 43.3478 64.0815 41.9106 63.2651 41.2479C61.6296 39.9168 60.6016 40.4233 59.4994 40.6678C58.4136 40.925 57.3071 41.069 56.1955 41.0977C59.373 35.3638 61.6516 29.2734 62.9518 23.884C63.7214 20.7034 64.1529 17.7701 64.1887 15.205C64.2244 12.6399 64.0292 10.3692 62.5944 8.4049C58.1113 2.26745 51.8085 0.571108 46.9323 0.512207C46.7812 0.509262 46.63 0.506317 46.4788 0.509262V0.500427ZM46.3496 2.38525C50.9619 2.33813 56.8551 3.72524 61.0854 9.51813C62.0364 10.8198 62.3196 12.7223 62.2866 15.0666C62.2508 17.4079 61.8468 20.2116 61.1074 23.2832C59.6726 29.2322 56.9623 36.1678 53.1444 42.3906C53.2792 42.4933 53.425 42.5783 53.5787 42.6439C54.3758 42.9973 56.1927 43.3006 59.8182 42.5025C60.7308 42.2964 61.3987 42.158 62.0914 42.7234C62.2597 42.8763 62.3928 43.0688 62.48 43.286C62.5673 43.5031 62.6064 43.739 62.5944 43.975C62.5574 44.3325 62.4343 44.6735 62.2371 44.9646C61.5362 46.0925 60.1536 47.1616 58.3807 48.0421C56.8112 48.8255 54.56 49.2349 52.5644 49.2584C51.5639 49.2702 50.6403 49.1878 49.857 48.9257L49.8075 48.905C49.5051 52.0268 48.8097 58.1907 48.3562 61.0032C47.9933 63.2709 47.3584 65.0733 46.1462 66.4221C44.9368 67.7709 43.2243 68.5838 40.9209 69.1139C38.0678 69.7706 35.987 69.0638 34.6456 67.8534C33.307 66.6459 32.6941 65.0438 32.3257 64.0631C32.0729 63.3858 31.9409 62.5082 31.8145 61.336C31.688 60.1639 31.5946 58.7297 31.5314 57.1128C31.4472 54.6372 31.4197 52.1597 31.4489 49.6825C30.2571 50.8521 28.776 51.6291 27.1829 51.9207C25.2891 52.2653 23.5986 51.9266 22.5898 51.6557C22.0926 51.5219 21.6125 51.3231 21.1605 51.0637C20.6932 50.7957 20.248 50.4924 19.9511 49.8946C19.7767 49.5522 19.7212 49.1546 19.7944 48.7725C19.8873 48.3852 20.0982 48.0421 20.3936 47.7977C20.9379 47.3235 21.658 47.0585 22.7438 46.817C24.7201 46.3811 25.41 46.0837 25.8306 45.7273C26.1879 45.4211 26.592 44.8026 27.3066 43.8955C27.3032 43.8553 27.3005 43.8151 27.2984 43.7748C26.0194 43.7362 24.7669 43.375 23.6426 42.7205C23.2303 43.1858 21.1248 45.5713 18.5575 48.8815C17.4773 50.2656 16.2843 51.0608 15.0254 51.1168C13.7665 51.1757 12.6286 50.4954 11.661 49.4911C9.72868 47.4796 8.18666 44.0192 6.84255 40.1082C5.50118 36.1972 4.40995 31.8415 3.63481 28.1308C2.85693 24.42 2.3979 21.4279 2.33193 19.9848C2.04332 13.8532 3.38193 9.72133 5.6771 7.11498C7.97501 4.50862 11.125 3.52203 14.1953 3.33355C19.7065 2.99487 24.94 5.05345 25.9982 5.49521C28.0378 4.01091 30.6655 3.08617 33.9475 3.14507C35.5055 3.16848 37.0559 3.38391 38.568 3.78709L38.623 3.76058C39.2886 3.50992 39.9667 3.29951 40.6543 3.13034C42.5212 2.66372 44.43 2.41586 46.3469 2.39114L46.3496 2.38525ZM46.7674 4.35842H46.3661C44.7913 4.38195 43.2225 4.57135 41.6823 4.92387C45.1072 6.54953 47.6937 9.05281 49.5161 11.5502C50.782 13.2794 51.8283 15.1808 52.6276 17.2047C52.93 17.9822 53.1334 18.6389 53.2488 19.1484C53.3066 19.4046 53.3451 19.6196 53.3588 19.8434C53.3697 19.9858 53.3585 20.1291 53.3258 20.2675C53.3258 20.2763 53.3121 20.297 53.3093 20.3058C53.3918 22.8856 52.7953 24.635 52.7238 27.097C52.6689 28.8817 53.0949 30.9786 53.1994 33.2669C53.2983 35.4168 53.0564 37.7787 51.7536 40.0964C51.8635 40.2378 51.9625 40.3792 52.0669 40.5205C55.5138 34.7041 57.9986 28.2692 59.3235 22.7826C60.0326 19.8287 60.4092 17.1517 60.4422 15.0312C60.4697 12.9108 60.1014 11.3735 59.6313 10.7315C55.9426 5.6778 50.9509 4.39082 46.7674 4.35548V4.35842ZM33.6011 5.11235C30.3522 5.12119 28.0213 6.17257 26.2539 7.74816C24.4315 9.37676 23.2083 11.6062 22.4057 13.8886C21.4519 16.598 21.1248 19.2191 20.9956 20.9979L21.0313 20.9743C22.0126 20.3853 23.3018 19.7963 24.6816 19.4547C26.0615 19.116 27.5485 19.01 28.8954 19.5695C30.2422 20.1291 31.3555 21.4455 31.7595 23.4423C33.6946 33.0342 31.1575 36.6007 30.223 39.2924C29.8684 40.2681 29.5647 41.2641 29.3132 42.2758C29.4314 42.2463 29.5496 42.211 29.6677 42.1992C30.3274 42.1403 30.8442 42.3759 31.152 42.5173C32.0921 42.9354 32.738 43.8131 33.0871 44.8144C33.1778 45.0765 33.2438 45.3592 33.2823 45.6508C33.3229 45.7705 33.3416 45.8975 33.3373 46.0248C33.233 49.6937 33.245 53.3653 33.373 57.0333C33.4362 58.6178 33.5297 60.0137 33.6479 61.1152C33.7661 62.2137 33.9337 63.05 34.0409 63.3328C34.3928 64.2752 34.9068 65.5091 35.8358 66.3485C36.7649 67.1849 38.098 67.7444 40.5334 67.1849C42.6444 66.6989 43.9472 66.0245 44.8186 65.0556C45.6872 64.0867 46.2067 62.7379 46.5393 60.6734C47.0368 57.5811 48.0373 48.6135 48.1583 46.926C48.1033 45.6537 48.2792 44.676 48.6585 43.9309C49.0488 43.1652 49.6535 42.6969 50.1758 42.4436C50.4369 42.317 50.6816 42.2316 50.8822 42.1697C50.6698 41.8427 50.447 41.5234 50.2143 41.2126C49.4613 40.2342 48.8447 39.144 48.3836 37.976C48.1628 37.4937 47.9272 37.0193 47.6772 36.5536C47.3117 35.8467 46.8499 34.9632 46.3661 33.9708C45.3986 31.9829 44.3458 29.5738 43.7988 27.2266C43.2546 24.8824 43.1749 22.4557 44.5712 20.7446C45.8081 19.225 47.9796 18.5947 51.2396 18.9481C51.1433 18.6389 51.0856 18.3827 50.9235 17.9704C50.1864 16.1117 49.2244 14.3651 48.0621 12.7753C45.2996 8.99097 40.8275 5.23899 33.9172 5.11824H33.6011V5.11235ZM15.3443 5.2655C14.9952 5.2655 14.6461 5.27727 14.2998 5.29789C11.5236 5.4687 8.89857 6.3316 7.02121 8.4638C5.1411 10.596 3.90419 14.0918 4.17356 19.8788C4.22578 20.9743 4.67107 24.043 5.43521 27.689C6.1966 31.335 7.27684 35.6259 8.57423 39.4161C9.87436 43.2064 11.4494 46.5048 12.9447 48.0657C13.6978 48.8461 14.352 49.1613 14.9457 49.1347C15.5422 49.1053 16.2596 48.7372 17.1364 47.6092C18.7351 45.5431 20.3943 43.5316 22.1116 41.5778C20.8931 40.4443 19.9606 39.0003 19.4 37.3791C18.8394 35.7578 18.6688 34.0114 18.9038 32.3009C19.187 30.1245 19.2254 28.0895 19.1925 26.4815C19.1595 24.9148 19.055 23.8722 19.055 23.2214C19.0545 23.2027 19.0545 23.1841 19.055 23.1654V23.1507L19.0523 23.133V23.1301C19.0506 19.7397 19.6013 16.3751 20.6795 13.1876C21.4491 10.9965 22.5953 8.77009 24.3133 6.96773C22.6256 6.37283 19.6295 5.46576 16.386 5.29495C16.0381 5.2758 15.6899 5.26598 15.3415 5.2655H15.3443ZM49.4227 20.8212C47.5563 20.8477 46.509 21.3631 45.9593 22.0375C45.1814 22.9946 45.1072 24.6733 45.591 26.7407C46.072 28.8111 47.067 31.1259 48.0016 33.049C48.4689 34.012 48.9224 34.8778 49.288 35.5817C49.6563 36.2885 49.9257 36.7892 50.0906 37.2162C50.2418 37.6108 50.4094 37.9583 50.5799 38.2823C51.3028 36.6478 51.432 35.0428 51.3577 33.37C51.2615 31.2996 50.8135 29.1821 50.8795 27.0381C50.9537 24.5319 51.4155 22.9004 51.4567 20.9625C50.7822 20.8689 50.1028 20.8217 49.4227 20.8212V20.8212ZM26.7899 21.1599C26.2197 21.1656 25.6519 21.2386 25.0967 21.3778C23.9901 21.6658 22.9243 22.1105 21.9274 22.7001C21.5902 22.8939 21.2692 23.1186 20.9681 23.3716L20.9076 23.4305C20.9241 23.8604 21.0038 24.903 21.0368 26.4374C21.0698 28.116 21.0313 30.2571 20.729 32.5748C20.072 37.6108 23.4832 41.781 27.4908 41.7869C27.7244 40.7532 28.1092 39.7047 28.4941 38.6004C29.61 35.3785 31.8062 33.0283 29.9564 23.8575C29.654 22.3555 29.0548 21.7489 28.2302 21.4072C27.768 21.2321 27.28 21.1483 26.7899 21.1599V21.1599ZM48.5513 21.7606H48.6888C48.8553 21.7639 49.0211 21.7856 49.1835 21.8254C49.3319 21.8608 49.4584 21.9138 49.5628 21.9874C49.6164 22.023 49.6625 22.0702 49.698 22.126C49.7335 22.1818 49.7577 22.2449 49.769 22.3114L49.7662 22.3349H49.769H49.7662C49.7716 22.4747 49.7381 22.6131 49.67 22.7325C49.589 22.8941 49.4872 23.0428 49.3677 23.1743C49.0888 23.5032 48.7154 23.723 48.3067 23.7986C47.909 23.8501 47.5075 23.7421 47.1797 23.4953C47.0455 23.3986 46.9252 23.2815 46.8224 23.1478C46.7334 23.0427 46.6735 22.9132 46.6492 22.7737C46.6435 22.7058 46.6508 22.6373 46.6706 22.5725C46.6905 22.5077 46.7225 22.4479 46.7647 22.3968C46.8549 22.287 46.9641 22.197 47.0863 22.1317C47.3501 21.9727 47.7075 21.8549 48.1115 21.7901C48.2627 21.7665 48.4111 21.7548 48.5513 21.7518V21.7606ZM27.0565 22.2554C27.2022 22.2554 27.3561 22.2701 27.5128 22.2937C27.9333 22.3555 28.3071 22.4763 28.593 22.653C28.7324 22.731 28.8565 22.8369 28.9586 22.9652C29.0141 23.0332 29.056 23.1127 29.0816 23.1989C29.1071 23.285 29.1158 23.3759 29.107 23.4658C29.0806 23.6351 29.009 23.7927 28.9009 23.9194C28.7884 24.0673 28.6559 24.1963 28.5078 24.3022C28.1503 24.5736 27.7112 24.6922 27.2764 24.635C26.832 24.5567 26.4253 24.3202 26.1219 23.9635C25.9929 23.8199 25.8837 23.6573 25.7976 23.4805C25.707 23.325 25.6673 23.1416 25.6849 22.9593C25.7261 22.6412 25.9707 22.4763 26.2099 22.385C26.4823 22.2917 26.7681 22.2518 27.0537 22.2672L27.0565 22.2554ZM51.9597 43.8808L51.9515 43.8837C51.5474 44.0398 51.2148 44.1046 50.9344 44.2372C50.6509 44.3541 50.4172 44.5783 50.2775 44.8674C50.1043 45.2061 49.9559 45.8069 49.9999 46.8288C50.1242 46.9205 50.2616 46.9901 50.4067 47.0349C50.8767 47.1881 51.6656 47.2882 52.5452 47.2735C54.2988 47.2529 56.4566 46.8141 57.6028 46.2427C58.5431 45.7747 59.416 45.1648 60.1948 44.4315H60.1921C56.3631 45.2797 54.1999 45.0529 52.8723 44.4669C52.5426 44.3199 52.2351 44.1214 51.9597 43.8779V43.8808ZM29.8849 44.1576H29.8272C29.6815 44.1724 29.4698 44.2254 29.0603 44.7113C28.1037 45.8599 27.7684 46.5814 26.9795 47.2558C26.1906 47.9273 25.1654 48.2866 23.1176 48.7372C22.6802 48.8208 22.2545 48.9633 21.8504 49.1613C21.9302 49.2319 21.9219 49.2496 22.0429 49.3173C22.3425 49.494 22.7273 49.6501 23.0379 49.7355C23.9175 49.9711 25.3633 50.245 26.8723 49.9711C28.3814 49.6943 29.9509 48.9198 31.2895 46.9083C31.5204 46.5608 31.5451 46.0484 31.3555 45.4976C31.163 44.9469 30.7425 44.4728 30.4456 44.3402C30.269 44.2489 30.0796 44.1892 29.8849 44.1635V44.1576Z" fill="#616161"/>
</svg>
