<svg width="65" height="59" viewBox="0 0 65 59" fill="none" xmlns="http://www.w3.org/2000/svg">
<path d="M32.6088 35.589C35.7672 35.589 38.3275 32.9732 38.3275 29.7463C38.3275 26.5195 35.7672 23.9036 32.6088 23.9036C29.4504 23.9036 26.89 26.5195 26.89 29.7463C26.89 32.9732 29.4504 35.589 32.6088 35.589Z" fill="#00D8FF"/>
<path d="M32.6087 43.1311C24.5774 43.1311 17.5599 42.1651 12.3082 40.3261C8.90203 39.1389 6.00847 37.5561 3.94652 35.752C1.75927 33.8433 0.59729 31.7599 0.59729 29.7464C0.59729 25.8823 4.74396 22.0997 11.7044 19.6322C17.4004 17.6071 24.828 16.4781 32.5973 16.4781C40.2299 16.4781 47.5549 17.5721 53.2167 19.574C56.5318 20.7379 59.3228 22.251 61.305 23.927C63.4581 25.7659 64.5973 27.7794 64.5973 29.7464C64.5973 33.7618 59.9608 37.8238 52.4876 40.3494C47.2018 42.1418 40.1388 43.1311 32.6087 43.1311V43.1311ZM32.6087 19.2714C25.2381 19.2714 17.9472 20.3655 12.6158 22.2626C6.21352 24.5438 3.34275 27.663 3.34275 29.7464C3.34275 31.9112 6.42997 35.3214 13.1968 37.6841C18.1637 39.4183 24.8849 40.3378 32.6087 40.3378C39.854 40.3378 46.6094 39.4066 51.6332 37.6957C58.6621 35.3098 61.8746 31.8996 61.8746 29.7464C61.8746 28.6407 61.0544 27.3371 59.562 26.0685C57.8419 24.602 55.3356 23.2635 52.3396 22.2044C46.9512 20.3189 39.9451 19.2714 32.6087 19.2714V19.2714Z" fill="#00D8FF"/>
<path d="M19.6332 58.8668C18.4713 58.8668 17.446 58.6107 16.5802 58.0986C13.3107 56.1665 12.1715 50.6032 13.5499 43.2125C14.6777 37.1486 17.4346 30.0257 21.3193 23.1471C25.1356 16.3966 29.7151 10.4607 34.2377 6.44533C36.8807 4.09428 39.5578 2.37173 41.9729 1.4639C44.6044 0.474594 46.8828 0.474595 48.546 1.45226C51.9522 3.45414 53.08 9.59946 51.4852 17.4673C50.3574 23.054 47.6689 29.7929 43.9095 36.462C39.8995 43.5617 35.5706 49.288 31.3897 53.0241C28.6785 55.4449 25.8874 57.214 23.3356 58.1335C22.0028 58.6223 20.7497 58.8668 19.6332 58.8668V58.8668ZM22.4926 23.8454L23.6774 24.5438C19.9978 31.0615 17.2751 38.0565 16.2271 43.7362C14.9625 50.545 16.1815 54.6419 17.9358 55.6777C18.3687 55.9338 18.9383 56.0734 19.6332 56.0734C21.9002 56.0734 25.4659 54.6069 29.5898 50.9291C33.5428 47.4025 37.6781 41.9089 41.54 35.0769C45.1626 28.6639 47.7372 22.216 48.808 16.9203C50.3004 9.50635 49.0131 4.9672 47.179 3.88478C46.2449 3.33775 44.7297 3.40759 42.907 4.09428C40.7995 4.88572 38.4186 6.43369 36.0263 8.5636C31.7315 12.3811 27.3456 18.0609 23.6774 24.5554L22.4926 23.8454Z" fill="#00D8FF"/>
<path d="M45.584 58.9023C42.4854 58.9023 38.5551 56.9935 34.454 53.3854C29.8745 49.3584 25.2151 43.3644 21.3191 36.4858C17.4914 29.7353 14.7573 22.717 13.6067 16.6998C12.9346 13.1848 12.8093 9.96086 13.2422 7.36539C13.7207 4.53715 14.8485 2.52363 16.5231 1.53433C19.9179 -0.479197 25.6936 1.59252 31.5719 6.93476C35.7413 10.7174 40.1158 16.467 43.8866 23.1244C47.9079 30.2241 50.6078 36.9165 51.6787 42.4798C52.3736 46.0879 52.4875 49.4399 51.9976 52.1634C51.4736 55.0614 50.2888 57.1215 48.58 58.1341C47.7257 58.6462 46.7118 58.9023 45.584 58.9023ZM23.6886 35.0892C27.3796 41.6069 31.9592 47.5078 36.2426 51.2672C41.3803 55.783 45.4587 56.7607 47.2244 55.7132C49.0585 54.6308 50.4028 50.1964 49.0129 43.0269C47.9877 37.7661 45.4017 31.3647 41.5284 24.5327C37.8944 18.1197 33.7135 12.6145 29.7605 9.02975C24.224 4.00176 19.7356 2.87279 17.9015 3.95521C16.9674 4.50223 16.2725 5.88726 15.9421 7.84259C15.5662 10.1005 15.6801 12.987 16.2952 16.1644C17.3889 21.879 20.009 28.5947 23.6886 35.0892V35.0892Z" fill="#00D8FF"/>
</svg>
