<svg width="65" height="55" viewBox="0 0 65 55" fill="none" xmlns="http://www.w3.org/2000/svg">
<path d="M55.4949 31.5021C53.2554 31.5131 51.3161 32.1142 49.6966 33.0046C49.1067 31.6799 48.4967 30.5227 48.3967 29.6548C48.277 28.6419 48.1468 28.0411 48.2869 26.8393C48.427 25.6372 49.0566 23.9345 49.0467 23.8123C49.0368 23.6899 48.9067 23.0777 47.6171 23.0666C46.3275 23.0556 45.2179 23.3447 45.0879 23.7231C44.9576 24.1014 44.708 24.9585 44.558 25.8487C44.3281 27.1508 41.9785 31.8026 40.6489 34.2285C40.2091 33.2829 39.8392 32.4479 39.7591 31.7803C39.6392 30.7674 39.5092 30.1666 39.6492 28.9648C39.7892 27.7627 40.4189 26.06 40.4089 25.9378C40.3988 25.8154 40.2689 25.2032 38.9794 25.1921C37.6897 25.1811 36.5802 25.4702 36.45 25.8487C36.32 26.2269 36.1801 27.1173 35.9202 27.9745C35.6604 28.831 32.5311 36.5764 31.7113 38.5909C31.2913 39.6144 30.9316 40.4381 30.6716 40.9947C30.6318 41.0836 30.6017 41.1393 30.5817 41.1839C30.6116 41.1283 30.6318 41.0724 30.6318 41.095C30.5175 41.3449 30.4008 41.5934 30.2817 41.8405V41.8515C30.1117 42.2075 29.9218 42.5301 29.8319 42.5301C29.7718 42.5301 29.642 41.5956 29.862 40.3157C30.3317 37.6226 31.4414 33.4387 31.4314 33.2937C31.4214 33.2158 31.6412 32.4925 30.7015 32.1029C29.7919 31.7357 29.4618 32.3479 29.382 32.3479C29.3021 32.3479 29.242 32.5706 29.242 32.5706C29.242 32.5706 30.2518 27.852 27.3025 27.852C25.463 27.852 22.9039 30.1002 21.6443 32.1366C20.8544 32.6152 19.1448 33.6501 17.3454 34.7517C16.6556 35.1747 15.9457 35.6085 15.276 36.0204C15.226 35.9645 15.1859 35.9089 15.136 35.8533C11.557 31.6025 4.94877 28.5978 5.22885 22.8886C5.32874 20.8076 5.97863 15.3438 17.9353 8.71111C27.7327 3.28044 35.5704 4.77172 36.9203 8.08789C38.8595 12.8176 32.7311 21.6202 22.5541 22.8886C18.6751 23.3672 16.6358 21.698 16.1259 21.0749C15.596 20.4184 15.516 20.3848 15.316 20.5073C14.986 20.7075 15.1961 21.2863 15.316 21.6312C15.616 22.5103 16.8655 24.0683 18.9951 24.8473C20.8643 25.5261 25.4132 25.9047 30.9116 23.5341C37.0899 20.8855 41.8987 13.5073 40.489 7.33118C39.0495 1.05489 29.7021 -1.00401 20.8546 2.49027C15.5861 4.57132 9.88767 7.84319 5.78871 12.1052C0.920077 17.18 0.140383 21.5977 0.460107 23.4452C1.59987 29.9997 9.71751 34.2731 12.9667 37.4335C12.8067 37.5337 12.6567 37.6228 12.5168 37.7118C10.8873 38.613 4.69903 42.2187 3.14938 46.025C1.40008 50.3428 3.4392 53.4362 4.77889 53.8593C8.95771 55.1501 13.2366 52.8243 15.536 49.0071C17.8352 45.1902 17.5554 40.2047 16.4957 37.9344C16.4856 37.9011 16.4657 37.8791 16.4558 37.8453C16.8756 37.5673 17.3053 37.289 17.7354 37.0109C18.565 36.4655 19.3749 35.9645 20.0846 35.5309C19.6846 36.7329 19.3948 38.1789 19.2448 40.2714C19.0649 42.7195 19.9747 45.8912 21.1544 47.1376C21.6741 47.6829 22.3039 47.6942 22.6939 47.6942C24.0735 47.6942 24.6932 46.4254 25.383 44.9119C26.2329 43.0643 26.9826 40.9165 26.9826 40.9165C26.9826 40.9165 26.0429 46.726 28.6122 46.726C29.5518 46.726 30.4918 45.3793 30.9114 44.6894V44.7004C30.9114 44.7004 30.9316 44.6561 30.9816 44.5672C31.0815 44.4001 31.1314 44.2999 31.1314 44.2999V44.2663C31.5112 43.543 32.3412 41.8848 33.5906 39.1473C35.2103 35.6083 36.7597 31.1902 36.7597 31.1902C36.7597 31.1902 36.8997 32.27 37.3798 34.0616C37.6596 35.1188 38.2494 36.2761 38.7192 37.4002C38.3395 37.9788 38.1094 38.3127 38.1094 38.3127C38.1094 38.3127 38.1094 38.3237 38.1192 38.3349C37.8 38.8079 37.47 39.2719 37.1297 39.7263C35.8499 41.4177 34.3303 43.3542 34.1305 43.9105C33.8904 44.5672 33.9505 45.0564 34.4105 45.4351C34.7502 45.7246 35.3502 45.7689 35.9799 45.7134C37.1297 45.624 37.9394 45.3127 38.3292 45.112C38.9489 44.8676 39.6689 44.4778 40.3487 43.9327C41.5984 42.9091 42.3584 41.4401 42.2881 39.5037C42.2482 38.4354 41.938 37.3669 41.5582 36.3656C41.6683 36.1874 41.7883 35.998 41.8983 35.8092C43.878 32.5926 45.4074 29.0653 45.4074 29.0653C45.4074 29.0653 45.5474 30.1445 46.0271 31.9362C46.2671 32.8378 46.737 33.8282 47.1668 34.7962C45.3073 36.4767 44.1578 38.4244 43.7577 39.7038C43.0178 42.0743 43.5977 43.1423 44.6874 43.3877C45.1773 43.4989 45.8771 43.2427 46.3971 42.9978C47.0468 42.753 47.8267 42.3635 48.5564 41.7626C49.8061 40.739 51.0158 39.3031 50.936 37.3558C50.9058 36.4765 50.686 35.5975 50.396 34.7517C51.9654 34.0174 54.0052 33.6165 56.6043 33.9505C62.1728 34.6738 63.2623 38.5464 63.0524 40.1599C62.8427 41.7849 61.673 42.6752 61.2831 42.9422C60.8929 43.2094 60.7731 43.3096 60.8033 43.5099C60.8531 43.7992 61.033 43.7882 61.3629 43.7211C61.823 43.6322 64.2822 42.4079 64.392 39.4144C64.5522 35.6306 61.2833 31.4688 55.4949 31.5021V31.5021ZM12.5768 47.6049C10.7375 49.8417 8.15813 50.6875 7.04855 49.9752C5.85883 49.2077 6.32868 45.9135 8.59806 43.5318C9.97769 42.0853 11.7572 40.75 12.9369 39.9265C13.2068 39.7486 13.5968 39.4814 14.0766 39.1587C14.1566 39.1034 14.1966 39.0809 14.1966 39.0809C14.2865 39.0138 14.3865 38.9584 14.4865 38.8915C15.316 42.2746 14.5163 45.2568 12.5768 47.6049V47.6049ZM26.0132 37.4335C25.3733 39.1805 24.0236 43.632 23.2041 43.3983C22.5043 43.1979 22.0742 39.8039 23.0641 36.4655C23.5639 34.785 24.6235 32.782 25.2535 32.0031C26.2631 30.7454 27.3728 30.3447 27.6328 30.8456C27.9826 31.5021 26.4129 36.343 26.0132 37.4335ZM37.1099 43.3319C36.8401 43.4875 36.5901 43.5876 36.4702 43.5097C36.3803 43.4541 36.5802 43.2425 36.5802 43.2425C36.5802 43.2425 37.9696 41.5845 38.5196 40.8274C38.8871 40.3157 39.2504 39.8001 39.6093 39.2809C39.6093 39.3361 39.619 39.3922 39.619 39.4586C39.6094 41.4509 37.8899 42.7977 37.1099 43.3319V43.3319ZM45.6678 41.1616C45.4678 41.0058 45.4976 40.4828 46.1675 38.8579C46.4275 38.2235 47.0275 37.1554 48.0669 36.1315C48.187 36.5543 48.2569 36.9548 48.2569 37.3331C48.2467 39.8372 46.6374 40.772 45.6678 41.1616Z" fill="#FF00C7"/>
</svg>
